<svg width="174" height="163" viewBox="0 0 174 163" fill="none" xmlns="http://www.w3.org/2000/svg">
<g filter="url(#filter0_d_1_2591)">
<rect x="40.2272" y="15.4318" width="118" height="118" rx="59" transform="rotate(12.13 40.2272 15.4318)" fill="url(#paint0_linear_1_2591)" shape-rendering="crispEdges"/>
<g clip-path="url(#paint1_diamond_1_2591_clip_path)" data-figma-skip-parse="true"><g transform="matrix(0.00059828 0.0234887 -0.0132839 -0.000183329 85.5123 85.5123)"><rect x="0" y="0" width="1180.54" height="1257.79" fill="url(#paint1_diamond_1_2591)" opacity="1" shape-rendering="crispEdges"/><rect x="0" y="0" width="1180.54" height="1257.79" transform="scale(1 -1)" fill="url(#paint1_diamond_1_2591)" opacity="1" shape-rendering="crispEdges"/><rect x="0" y="0" width="1180.54" height="1257.79" transform="scale(-1 1)" fill="url(#paint1_diamond_1_2591)" opacity="1" shape-rendering="crispEdges"/><rect x="0" y="0" width="1180.54" height="1257.79" transform="scale(-1)" fill="url(#paint1_diamond_1_2591)" opacity="1" shape-rendering="crispEdges"/></g></g><rect x="70.5142" y="59.0112" width="30" height="53" data-figma-gradient-fill="{&#34;type&#34;:&#34;GRADIENT_DIAMOND&#34;,&#34;stops&#34;:[{&#34;color&#34;:{&#34;r&#34;:1.0,&#34;g&#34;:1.0,&#34;b&#34;:1.0,&#34;a&#34;:1.0},&#34;position&#34;:0.0},{&#34;color&#34;:{&#34;r&#34;:1.0,&#34;g&#34;:1.0,&#34;b&#34;:1.0,&#34;a&#34;:0.40000000596046448},&#34;position&#34;:0.32993713021278381},{&#34;color&#34;:{&#34;r&#34;:1.0,&#34;g&#34;:1.0,&#34;b&#34;:1.0,&#34;a&#34;:0.10000000149011612},&#34;position&#34;:0.66496855020523071},{&#34;color&#34;:{&#34;r&#34;:1.0,&#34;g&#34;:1.0,&#34;b&#34;:1.0,&#34;a&#34;:0.0},&#34;position&#34;:1.0}],&#34;stopsVar&#34;:[{&#34;color&#34;:{&#34;r&#34;:1.0,&#34;g&#34;:1.0,&#34;b&#34;:1.0,&#34;a&#34;:1.0},&#34;position&#34;:0.0},{&#34;color&#34;:{&#34;r&#34;:1.0,&#34;g&#34;:1.0,&#34;b&#34;:1.0,&#34;a&#34;:0.40000000596046448},&#34;position&#34;:0.32993713021278381},{&#34;color&#34;:{&#34;r&#34;:1.0,&#34;g&#34;:1.0,&#34;b&#34;:1.0,&#34;a&#34;:0.10000000149011612},&#34;position&#34;:0.66496855020523071},{&#34;color&#34;:{&#34;r&#34;:1.0,&#34;g&#34;:1.0,&#34;b&#34;:1.0,&#34;a&#34;:0.0},&#34;position&#34;:1.0}],&#34;transform&#34;:{&#34;m00&#34;:1.1965590715408325,&#34;m01&#34;:-26.567827224731445,&#34;m02&#34;:98.197914123535156,&#34;m10&#34;:46.977363586425781,&#34;m11&#34;:-0.36665812134742737,&#34;m12&#34;:62.206916809082031},&#34;opacity&#34;:1.0,&#34;blendMode&#34;:&#34;NORMAL&#34;,&#34;visible&#34;:true}"/>
<path d="M50.0118 121.579L51.0234 120.27L58.7615 118.131C58.7615 118.131 58.8575 118.096 59.0495 118.027C59.2344 117.965 59.4443 117.877 59.6792 117.76C59.9063 117.636 60.1061 117.487 60.2785 117.312L60.384 117.41L59.9614 118.807L50.0118 121.579ZM63.1176 121.757L63.8045 120.998L64.954 122.064L64.8466 122.183C64.8466 122.183 64.8193 122.158 64.7645 122.107C64.7176 122.063 64.6942 122.042 64.6942 122.042C64.4987 121.86 64.2805 121.76 64.0395 121.74C63.7908 121.713 63.5578 121.787 63.3405 121.964L63.1176 121.757ZM62.7635 121.123C62.85 121.044 62.9157 120.915 62.9604 120.739C62.9981 120.57 62.9387 120.413 62.7823 120.268L62.6181 120.115L62.7254 119.997L63.4292 120.65L62.8221 121.178L62.7635 121.123ZM56.5333 127.63L56.4395 127.543L57.071 126.034L63.3588 120.584L64.1212 121.292L56.5333 127.63ZM56.4395 127.543L57.7222 119.065L60.384 117.41L59.1788 125.087L56.4395 127.543ZM49.9062 121.481L55.4532 113.25L57.2478 114.915L53.9051 119.779L50.0118 121.579L49.9062 121.481ZM55.0947 114.314L54.8719 114.107C55.0188 113.865 55.072 113.624 55.0314 113.382C54.983 113.134 54.8689 112.926 54.689 112.759C54.689 112.759 54.6616 112.734 54.6069 112.683C54.5522 112.632 54.5248 112.607 54.5248 112.607L54.6321 112.488L55.7816 113.555L55.0947 114.314ZM56.7932 115.584L56.7229 115.519L57.1891 114.86L57.8929 115.513L57.7856 115.632L57.6214 115.48C57.4493 115.32 57.2859 115.27 57.1309 115.33C56.9689 115.398 56.8563 115.483 56.7932 115.584Z" fill="white"/>
<path d="M40.8385 108.128L47.9558 99.6358L49.053 102.107L43.8809 107.766L40.8385 108.128ZM50.2115 107.122C50.5207 107.109 50.7177 107 50.8024 106.797C50.8775 106.598 50.8782 106.416 50.8046 106.25L50.7527 106.133L50.898 106.066L52.1964 108.991L52.0511 109.058C52.0511 109.058 52.0425 109.038 52.0251 108.999C52.0078 108.96 51.9992 108.941 51.9992 108.941C51.9126 108.746 51.7636 108.568 51.5521 108.407C51.331 108.25 51.0399 108.173 50.679 108.175L50.2115 107.122ZM40.8385 108.128L42.5694 107.296L51.3024 107.095L51.7828 108.177L42.954 108.123C42.8872 108.13 42.766 108.133 42.5904 108.132C42.405 108.135 42.203 108.14 41.9843 108.147C41.756 108.158 41.5443 108.167 41.3493 108.175C41.1446 108.187 40.9916 108.211 40.8904 108.245L40.8385 108.128ZM46.537 103.971L47.1038 103.71L48.7593 107.439L48.1925 107.7L46.537 103.971ZM48.3288 102.881L47.2576 100.468C47.493 100.184 47.6261 99.9051 47.6568 99.6326C47.6779 99.3646 47.6451 99.1331 47.5585 98.9381C47.5585 98.9381 47.5499 98.9186 47.5326 98.8796C47.5153 98.8406 47.5066 98.8211 47.5066 98.8211L47.6519 98.7542L49.5606 103.054L49.4153 103.12L49.3634 103.003C49.2898 102.838 49.1549 102.718 48.9587 102.644C48.7527 102.574 48.5428 102.653 48.3288 102.881Z" fill="white"/>
<path d="M37.015 91.6108C36.9089 90.4744 37.0087 89.4779 37.3143 88.6212C37.6093 87.7656 38.0973 87.0833 38.7782 86.5743C39.4486 86.0664 40.2825 85.7617 41.28 85.66C42.2775 85.5584 43.1521 85.6891 43.9037 86.0521C44.6554 86.415 45.2604 86.986 45.7188 87.7648C46.1772 88.5437 46.4595 89.5013 46.5656 90.6377L46.8959 94.1743L46.2622 94.271C46.1868 93.4639 46.1263 92.816 46.0807 92.3275C46.034 91.8283 46.0003 91.4672 45.9795 91.2442C45.9577 91.0105 45.9467 90.8937 45.9467 90.8937C45.8535 89.8954 45.414 89.1468 44.6282 88.6479C43.8425 88.149 42.8023 87.9655 41.5076 88.0974C40.213 88.2293 39.2264 88.6193 38.5477 89.2675C37.8585 89.9167 37.5604 90.7404 37.6537 91.7387C37.6537 91.7387 37.6646 91.8556 37.6864 92.0892C37.7082 92.3229 37.7435 92.6999 37.7921 93.2203C37.8407 93.7407 37.9046 94.4257 37.984 95.2753L37.3632 95.3386L37.015 91.6108ZM37.201 93.6022L46.7516 92.629L46.9658 94.923L37.4153 95.8962L37.201 93.6022ZM45.9426 94.979L46.9614 94.8752L47.0685 96.0222L46.9093 96.0385C46.9093 96.0385 46.9063 96.0066 46.9004 95.9429C46.8944 95.8792 46.891 95.842 46.89 95.8314C46.8672 95.5871 46.7629 95.3886 46.5773 95.236C46.3906 95.0728 46.1806 95.003 45.9471 95.0268L45.9426 94.979ZM38.4151 95.7621L38.4181 95.794C38.175 95.8295 37.9823 95.9456 37.84 96.1424C37.6967 96.3285 37.6365 96.5437 37.6593 96.788C37.6593 96.788 37.6622 96.8199 37.6682 96.8836C37.6741 96.9473 37.6771 96.9792 37.6771 96.9792L37.5179 96.9954L37.4123 95.8643L38.4151 95.7621Z" fill="white"/>
<path d="M37.7193 76.0245L48.5791 74.1913L47.8438 76.7934L40.2788 77.7344L37.7193 76.0245ZM45.5345 81.3763C45.7796 81.568 45.9994 81.6139 46.1939 81.514C46.3781 81.4112 46.4949 81.2725 46.5442 81.098L46.579 80.9749L46.7329 81.0187L45.8627 84.0981L45.7088 84.0543C45.7088 84.0543 45.7146 84.0337 45.7262 83.9927C45.7378 83.9516 45.7436 83.9311 45.7436 83.9311C45.8016 83.7258 45.801 83.4927 45.7417 83.2319C45.6721 82.9681 45.4986 82.7191 45.2212 82.4848L45.5345 81.3763ZM37.7193 76.0245L39.5747 76.5193L46.3865 82.0679L46.0645 83.2073L39.3421 77.4013C39.2863 77.3632 39.1917 77.2864 39.0581 77.1707C38.9142 77.0522 38.7565 76.9241 38.5847 76.7865C38.4028 76.646 38.2347 76.515 38.0806 76.3935C37.9163 76.2691 37.7842 76.1871 37.6845 76.1477L37.7193 76.0245ZM44.7305 76.5727L45.3306 76.7435L44.2211 80.6698L43.6209 80.4989L44.7305 76.5727ZM46.7963 76.9111L47.5142 74.3706C47.8758 74.3072 48.1551 74.1815 48.3523 73.9936C48.5393 73.8029 48.6617 73.6048 48.7197 73.3995C48.7197 73.3995 48.7255 73.379 48.7371 73.3379C48.7487 73.2969 48.7545 73.2764 48.7545 73.2764L48.9084 73.3202L47.6292 77.8469L47.4753 77.8031L47.5101 77.6799C47.5594 77.5054 47.5326 77.3259 47.4296 77.1413C47.3163 76.9538 47.1052 76.8771 46.7963 76.9111Z" fill="white"/>
<path d="M45.3585 59.6939L46.2827 58.2339C46.5167 57.8644 46.7852 57.5299 47.0883 57.2306C47.3825 56.9254 47.7031 56.6881 48.0502 56.5188C48.3883 56.3436 48.752 56.2676 49.1414 56.2907C49.5274 56.299 49.931 56.4392 50.352 56.7114C50.6655 56.914 50.9363 57.1843 51.1642 57.5222C51.3889 57.8453 51.5248 58.2189 51.5719 58.643C51.6247 59.0582 51.5471 59.5097 51.3392 59.9977C51.5853 59.7884 51.8989 59.6419 52.2802 59.5582C52.6671 59.4654 53.0064 59.418 53.298 59.416C53.3925 59.4263 53.5489 59.4385 53.7672 59.4526C53.9765 59.4609 54.227 59.4641 54.5186 59.4621C54.807 59.4453 55.1071 59.4298 55.4191 59.4155C55.7751 59.3916 56.0631 59.3555 56.283 59.3072C56.494 59.2531 56.672 59.1713 56.817 59.0618C56.9621 58.9524 57.0945 58.803 57.2143 58.6138L57.3487 58.7006L56.6298 59.8362C56.3217 60.3229 56.0234 60.7143 55.735 61.0104C55.4522 61.2976 55.1369 61.5065 54.789 61.6373C54.4379 61.7532 54.031 61.8077 53.5683 61.8007C53.4005 61.8065 53.2075 61.8024 52.9892 61.7883C52.762 61.7684 52.5347 61.7485 52.3074 61.7286C52.0802 61.7087 51.8631 61.6827 51.6562 61.6505C51.4551 61.6094 51.2922 61.5676 51.1676 61.5251C50.8067 61.457 50.5151 61.459 50.2927 61.5311C50.0671 61.5885 49.9143 61.6802 49.8344 61.8064L49.7135 61.7282C49.7135 61.7282 49.7335 61.6967 49.7734 61.6336C49.8133 61.5705 49.8647 61.4894 49.9275 61.3902C50.0473 61.201 50.1329 60.9959 50.1843 60.7752C50.2324 60.5396 50.2109 60.2844 50.1198 60.0095C50.0197 59.7289 49.8044 59.431 49.4738 59.1156C49.4315 59.0629 49.3639 59.0001 49.2711 58.9274C49.1839 58.8457 49.0748 58.7688 48.9437 58.6967C48.6009 58.5005 48.2967 58.3927 48.0311 58.3735C47.7623 58.3394 47.5302 58.3672 47.3346 58.4567C47.1302 58.5404 46.9587 58.6518 46.8201 58.7909C46.6783 58.9151 46.5704 59.0358 46.4962 59.153C46.3788 59.3184 46.279 59.4762 46.1967 59.6262C46.1111 59.7613 46.041 59.8621 45.9864 59.9284C45.9807 59.9374 45.9273 59.922 45.8264 59.8821C45.7164 59.8364 45.6109 59.7936 45.5099 59.7538C45.409 59.7139 45.3585 59.6939 45.3585 59.6939ZM45.444 59.5587L53.5061 64.7706L52.2652 66.7308L44.2031 61.519L45.444 59.5587ZM51.4443 66.143L52.3251 66.6362L51.7089 67.6095L51.5745 67.5227C51.5802 67.5137 51.5945 67.4911 51.6173 67.4551C51.6459 67.41 51.6658 67.3785 51.6772 67.3605C51.8028 67.1622 51.8411 66.952 51.7923 66.73C51.7403 66.4931 51.6186 66.3065 51.4272 66.1701L51.4443 66.143ZM45.0619 62.017L45.0448 62.044C44.833 61.9198 44.6188 61.8893 44.4021 61.9524C44.1822 62.0008 44.0123 62.1196 43.8925 62.3088C43.8754 62.3359 43.8525 62.3719 43.824 62.417C43.8012 62.453 43.7869 62.4756 43.7812 62.4846L43.6468 62.3977L44.263 61.4243L45.0619 62.017ZM52.6425 64.2504L52.6596 64.2233C52.8835 64.3681 53.1067 64.4044 53.3291 64.3323C53.5572 64.2511 53.7283 64.1204 53.8424 63.9402C53.8424 63.9402 53.8538 63.9222 53.8767 63.8861C53.8995 63.8501 53.9166 63.823 53.928 63.805L54.0624 63.8919L53.4462 64.8652L52.6425 64.2504Z" fill="white"/>
<path d="M67.2156 39.8598C67.4155 39.7852 67.6639 39.7039 67.9609 39.6158C68.2679 39.5239 68.5835 39.4403 68.9077 39.3648C69.2382 39.2756 69.5256 39.2081 69.7699 39.1625C70.0205 39.1031 70.198 39.0767 70.3023 39.0833L70.8513 41.1838L70.7014 41.2397C70.5142 40.7176 70.17 40.3736 69.6687 40.2078C69.1738 40.0282 68.6065 40.0578 67.967 40.2966C67.3874 40.5129 66.9681 40.8288 66.7091 41.2443C66.4601 41.656 66.3976 42.0664 66.5216 42.4755C66.6196 42.7805 66.8081 43.0061 67.0871 43.1524C67.3662 43.2987 67.6948 43.4094 68.0729 43.4846L71.6054 44.2835C72.1586 44.373 72.6258 44.5857 73.0068 44.9216C73.3978 45.2538 73.679 45.7066 73.8506 46.2801C74.1534 47.2828 74.0539 48.1909 73.5524 49.0042C73.0472 49.8076 72.195 50.4331 70.9958 50.8807C70.5561 51.0449 70.112 51.1651 69.6635 51.2414C69.2286 51.3241 68.8279 51.3598 68.4613 51.3487C68.0912 51.3275 67.7769 51.2569 67.5187 51.137C67.3596 50.9459 67.2292 50.6929 67.1276 50.3779C67.0261 50.0629 66.9577 49.7298 66.9224 49.3786C66.8972 49.0238 66.9118 48.7166 66.9661 48.4573L67.101 48.4069C67.2446 48.9339 67.5055 49.3773 67.8837 49.7371C68.2683 50.083 68.7222 50.3064 69.2455 50.407C69.7752 50.4939 70.338 50.4204 70.934 50.1866C71.5899 49.9303 72.0402 49.5744 72.2848 49.1188C72.5258 48.6532 72.5635 48.1894 72.3979 47.7275C72.2864 47.4162 72.0907 47.1705 71.8108 46.9903C71.541 46.8065 71.1548 46.6774 70.6523 46.6031L67.4029 45.8352C66.7653 45.7316 66.242 45.4887 65.833 45.1063C65.424 44.7238 65.1455 44.2472 64.9975 43.6763C64.8603 43.1355 64.8515 42.6208 64.9709 42.1322C65.0868 41.6336 65.33 41.1899 65.7005 40.8011C66.081 40.4086 66.586 40.0948 67.2156 39.8598ZM70.2525 38.8969L70.3359 39.2244L68.5671 39.8847L68.4538 39.5684L70.2525 38.8969Z" fill="white"/>
<path d="M85.1827 37.9937C86.036 37.991 86.809 38.1059 87.5017 38.3384C88.1944 38.5602 88.7908 38.8889 89.2909 39.3247C89.791 39.7604 90.1735 40.2872 90.4384 40.905C90.714 41.5228 90.8507 42.2211 90.8485 42.9997C90.8464 43.7677 90.7058 44.4615 90.4267 45.081C90.1583 45.6899 89.7729 46.2137 89.2703 46.6527C88.7677 47.0916 88.1695 47.4295 87.4755 47.6663C86.7815 47.8925 86.0079 48.007 85.1545 48.0097C84.3119 48.0123 83.5442 47.9027 82.8515 47.6809C82.1588 47.4485 81.5624 47.1144 81.0623 46.6786C80.5622 46.2429 80.1797 45.7214 79.9148 45.1143C79.6498 44.4964 79.5184 43.8035 79.5206 43.0355C79.5228 42.2569 79.6581 41.5578 79.9265 40.9383C80.1949 40.3188 80.5804 39.7896 81.0829 39.3506C81.5855 38.9117 82.1838 38.5792 82.8777 38.353C83.5717 38.1161 84.34 37.9964 85.1827 37.9937ZM85.1563 47.3857C85.807 47.3836 86.3728 47.2058 86.8538 46.8523C87.3455 46.4881 87.7202 45.9802 87.978 45.3288C88.2465 44.6773 88.382 43.9035 88.3846 43.0075C88.3871 42.1008 88.256 41.3226 87.9911 40.6728C87.737 40.0123 87.3651 39.5068 86.8754 39.1563C86.3964 38.7952 85.8316 38.6156 85.1809 38.6177C84.5409 38.6197 83.9804 38.8028 83.4994 39.167C83.0184 39.5205 82.6437 40.0284 82.3752 40.6905C82.1067 41.342 81.9711 42.1211 81.9686 43.0278C81.9661 43.9238 82.0972 44.6967 82.3621 45.3465C82.6269 45.9963 82.9988 46.5018 83.4778 46.863C83.9568 47.2135 84.5163 47.3877 85.1563 47.3857Z" fill="white"/>
<path d="M100.857 40.6952L97.3744 49.6414L95.2312 48.7957L98.7134 39.8495L100.857 40.6952ZM101.074 50.4133L101.199 51.1506L97.3446 49.6296L97.5768 49.0332L101.074 50.4133ZM102.892 48.6538L101.244 51.1682L98.6692 50.1523L99.3628 49.7379C99.7894 49.9063 100.199 49.9705 100.593 49.9307C101 49.8849 101.384 49.75 101.746 49.5258C102.112 49.2918 102.444 48.9815 102.744 48.595L102.892 48.6538ZM95.6266 47.8681L95.3354 48.8368L94.234 48.4022L94.292 48.2531C94.292 48.2531 94.3218 48.2649 94.3813 48.2884C94.4409 48.3119 94.4756 48.3256 94.4855 48.3295C94.7038 48.4156 94.9164 48.4135 95.1233 48.3231C95.3439 48.2267 95.5018 48.0711 95.5968 47.8564L95.6266 47.8681ZM100.461 41.6228L100.827 40.6834L101.854 41.0887L101.796 41.2378C101.786 41.2338 101.751 41.2201 101.692 41.1966C101.642 41.1771 101.617 41.1673 101.617 41.1673C101.399 41.0812 101.181 41.0813 100.965 41.1678C100.748 41.2542 100.59 41.4098 100.491 41.6345L100.461 41.6228ZM98.3776 40.8006L98.3478 40.7889C98.4269 40.5563 98.416 40.3342 98.3153 40.1225C98.2146 39.9107 98.0551 39.7618 97.8368 39.6756C97.8269 39.6717 97.7922 39.658 97.7326 39.6345C97.683 39.615 97.6582 39.6052 97.6582 39.6052L97.7163 39.4561L98.7432 39.8613L98.3776 40.8006Z" fill="white"/>
<path d="M116.292 49.4041L112.187 53.824C111.519 54.5431 111.159 55.2604 111.105 55.9759C111.06 56.6987 111.331 57.3398 111.918 57.899C112.528 58.4803 113.177 58.7377 113.864 58.6712C114.56 58.612 115.227 58.246 115.866 57.5734L120.091 53.0245L120.855 53.753L116.696 58.2316C115.919 59.0679 115.051 59.4855 114.092 59.4844C113.14 59.4907 112.2 59.0523 111.274 58.1693C110.154 57.1023 109.541 56.0692 109.436 55.07C109.338 54.0629 109.677 53.1412 110.454 52.3049L114.624 47.8147L116.292 49.4041ZM114.647 47.8367L114.081 48.4464L114.058 48.4243C114.188 48.2684 114.246 48.0958 114.233 47.9063C114.22 47.7169 114.14 47.5523 113.993 47.4124C113.993 47.4124 113.966 47.3867 113.912 47.3352C113.858 47.2837 113.831 47.2579 113.831 47.2579L113.929 47.1524L114.647 47.8367ZM116.975 50.0553L116.877 50.1609C116.877 50.1609 116.85 50.1351 116.796 50.0836C116.742 50.0321 116.715 50.0063 116.715 50.0063C116.568 49.8665 116.401 49.7957 116.214 49.7938C116.026 49.7919 115.863 49.8653 115.725 50.0138L115.702 49.9917L116.268 49.382L116.975 50.0553ZM120.114 53.0466L119.548 53.6562L119.525 53.6342C119.655 53.4783 119.713 53.3056 119.7 53.1162C119.687 52.9267 119.611 52.7658 119.472 52.6333C119.472 52.6333 119.445 52.6076 119.391 52.5561C119.337 52.5046 119.31 52.4788 119.31 52.4788L119.407 52.3733L120.114 53.0466ZM121.539 54.4042L121.441 54.5098C121.441 54.5098 121.414 54.484 121.36 54.4325C121.313 54.3883 121.29 54.3663 121.29 54.3663C121.143 54.2265 120.973 54.1519 120.777 54.1427C120.59 54.1408 120.427 54.2142 120.289 54.3627L120.266 54.3406L120.832 53.7309L121.539 54.4042Z" fill="white"/>
<path d="M129.394 66.6329L121.099 71.3695L119.978 69.3384L128.273 64.6018L129.394 66.6329ZM131.136 69.6547L130.58 69.9721L126.095 61.8479L126.651 61.5305L131.136 69.6547ZM130.622 69.9483L129.149 70.7893L129.064 70.6352L129.189 70.5638C129.592 70.3457 129.845 70.0538 129.948 69.6881C130.056 69.3318 130.004 68.9502 129.791 68.5433L129.833 68.5195L130.622 69.9483ZM131.344 69.5357L130.997 69.7341L130.316 68.17C130.414 68.3474 130.529 68.5335 130.661 68.7284C130.802 68.918 130.933 69.0888 131.054 69.2411C131.183 69.388 131.28 69.4862 131.344 69.5357ZM120.869 68.8666L119.994 69.3665L119.476 68.428L119.614 68.3486C119.614 68.3486 119.627 68.372 119.653 68.4187C119.684 68.4747 119.7 68.5027 119.7 68.5027C119.813 68.7082 119.978 68.8412 120.194 68.902C120.425 68.9668 120.645 68.9456 120.853 68.8386L120.869 68.8666ZM121.952 70.8276L121.975 70.8696C121.771 70.986 121.636 71.1612 121.571 71.3953C121.514 71.624 121.545 71.8458 121.664 72.0605C121.664 72.0605 121.677 72.0839 121.702 72.1306C121.733 72.1866 121.749 72.2146 121.749 72.2146L121.61 72.294L121.076 71.3275L121.952 70.8276ZM126.925 63.2528L126.884 63.2766C126.647 62.871 126.352 62.6223 125.996 62.5304C125.646 62.4479 125.272 62.5203 124.874 62.7478L124.749 62.8192L124.664 62.6651L126.136 61.8241L126.925 63.2528ZM126.859 61.4115C126.887 61.5062 126.926 61.6434 126.977 61.8233C127.032 62.0126 127.101 62.2132 127.181 62.4251C127.276 62.6412 127.37 62.8332 127.463 63.0013L126.512 61.6099L126.859 61.4115Z" fill="white"/>
<path d="M133.5 80.5673L124.175 82.8488L123.653 80.6048L132.978 78.3233L133.5 80.5673ZM124.643 80.412L123.664 80.6516L123.399 79.514L123.555 79.4759C123.555 79.4759 123.562 79.5071 123.576 79.5694C123.591 79.6318 123.599 79.6681 123.602 79.6785C123.657 79.9175 123.783 80.1062 123.98 80.2448C124.187 80.3809 124.404 80.421 124.632 80.3653L124.643 80.412ZM125.147 82.5781L125.154 82.6093C124.929 82.6754 124.753 82.8119 124.625 83.0187C124.511 83.2333 124.483 83.4653 124.541 83.7147C124.541 83.7147 124.547 83.7406 124.559 83.7926C124.574 83.8549 124.582 83.8913 124.585 83.9017L124.429 83.9397L124.168 82.8177L125.147 82.5781ZM132.514 80.7757L133.493 80.5361L133.754 81.6581L133.595 81.6806C133.595 81.6806 133.589 81.6546 133.577 81.6027C133.565 81.5507 133.558 81.5195 133.555 81.5092C133.497 81.2598 133.37 81.0659 133.173 80.9273C132.979 80.7991 132.762 80.7589 132.521 80.8068L132.514 80.7757ZM132.01 78.6096L131.999 78.5628C132.237 78.5045 132.413 78.368 132.528 78.1534C132.642 77.9388 132.67 77.7068 132.612 77.4574C132.612 77.4574 132.605 77.4263 132.59 77.3639C132.576 77.3016 132.569 77.2704 132.569 77.2704L132.724 77.2324L132.989 78.37L132.01 78.6096Z" fill="white"/>
<path d="M132.67 96.4251C132.525 97.2661 132.278 98.0083 131.929 98.652C131.59 99.2974 131.163 99.8303 130.647 100.25C130.13 100.671 129.545 100.96 128.89 101.118C128.233 101.287 127.521 101.306 126.753 101.175C125.996 101.045 125.336 100.791 124.774 100.414C124.22 100.048 123.77 99.5816 123.424 99.0137C123.078 98.4459 122.848 97.8006 122.735 97.0777C122.632 96.3566 122.653 95.5757 122.798 94.7347C122.941 93.9043 123.182 93.1664 123.521 92.521C123.87 91.8773 124.303 91.3454 124.819 90.9252C125.335 90.5049 125.916 90.2147 126.56 90.0546C127.215 89.8962 127.921 89.8818 128.678 90.0114C129.446 90.1428 130.112 90.3921 130.676 90.7593C131.241 91.1265 131.696 91.5941 132.042 92.1619C132.388 92.7298 132.612 93.3742 132.715 94.0953C132.828 94.8181 132.814 95.5947 132.67 96.4251ZM123.413 94.8401C123.302 95.4813 123.38 96.0681 123.645 96.6005C123.919 97.1452 124.355 97.5986 124.953 97.9607C125.549 98.3333 126.289 98.5952 127.172 98.7465C128.065 98.8995 128.856 98.8995 129.542 98.7465C130.238 98.6059 130.801 98.3235 131.231 97.8993C131.67 97.4875 131.945 96.961 132.055 96.3198C132.164 95.6891 132.081 95.1067 131.805 94.5725C131.539 94.04 131.103 93.5866 130.497 93.2122C129.901 92.8396 129.156 92.5768 128.262 92.4238C127.379 92.2726 126.594 92.2735 125.908 92.4264C125.221 92.5794 124.658 92.8618 124.219 93.2736C123.79 93.6872 123.522 94.2094 123.413 94.8401Z" fill="white"/>
<path d="M128.144 110.214L116.194 113.693L114.615 112.868L126.556 109.402L128.144 110.214ZM120.669 105.481L119.848 104.953L120.479 103.951L120.614 104.038C120.614 104.038 120.591 104.074 120.545 104.146C120.5 104.218 120.477 104.254 120.477 104.254C120.346 104.462 120.298 104.678 120.333 104.903C120.376 105.134 120.497 105.313 120.694 105.44L120.669 105.481ZM119.526 107.295C119.323 107.177 119.108 107.147 118.883 107.205C118.666 107.268 118.496 107.399 118.37 107.598C118.37 107.598 118.348 107.634 118.302 107.706C118.251 107.787 118.225 107.828 118.225 107.828L118.091 107.741L118.722 106.74L119.543 107.268L119.526 107.295ZM128.144 110.214L124.948 110.784L118.705 106.767L119.873 104.912L126.601 109.241C127.059 109.535 127.441 109.749 127.747 109.883C128.063 110.022 128.221 110.092 128.221 110.092L128.144 110.214ZM122.872 118.161L116.198 113.867C115.884 113.665 115.6 113.495 115.347 113.357C115.096 113.234 114.898 113.139 114.752 113.07C114.61 113.016 114.538 112.989 114.538 112.989L114.615 112.868L117.932 112.376L124.04 116.306L122.872 118.161ZM122.077 117.592L122.897 118.12L122.258 119.136L122.123 119.049C122.123 119.049 122.149 119.008 122.2 118.927C122.245 118.855 122.268 118.819 122.268 118.819C122.393 118.62 122.437 118.401 122.399 118.161C122.364 117.936 122.248 117.76 122.051 117.633L122.077 117.592ZM123.22 115.778C123.423 115.896 123.632 115.923 123.849 115.86C124.069 115.811 124.244 115.683 124.375 115.475C124.375 115.475 124.401 115.435 124.452 115.353C124.497 115.281 124.52 115.245 124.52 115.245L124.655 115.332L124.023 116.333L123.203 115.805L123.22 115.778Z" fill="white"/>
<path d="M113.854 127.38C113.683 127.507 113.471 127.65 113.218 127.811C112.957 127.977 112.697 128.137 112.439 128.288C112.186 128.449 111.957 128.578 111.752 128.677C111.545 128.791 111.398 128.86 111.311 128.885L110.339 127.176L110.455 127.09C110.741 127.488 111.105 127.703 111.548 127.734C111.99 127.765 112.468 127.59 112.983 127.209C113.394 126.904 113.663 126.565 113.79 126.193C113.907 125.827 113.866 125.486 113.665 125.17C113.57 125.002 113.442 124.878 113.28 124.799C113.116 124.734 112.935 124.702 112.738 124.702C112.533 124.708 112.314 124.724 112.083 124.75L109.158 124.984C108.691 125.065 108.241 125.013 107.807 124.83C107.373 124.647 107.001 124.312 106.691 123.825C106.368 123.321 106.208 122.796 106.21 122.251C106.203 121.711 106.354 121.181 106.663 120.661C106.97 120.155 107.423 119.68 108.023 119.236C108.392 118.963 108.756 118.739 109.117 118.565C109.478 118.391 109.811 118.27 110.117 118.202C110.415 118.141 110.67 118.131 110.884 118.172C111.077 118.295 111.256 118.48 111.422 118.729C111.594 118.987 111.732 119.262 111.838 119.556C111.95 119.858 112.014 120.129 112.029 120.37L111.926 120.446C111.672 120.037 111.345 119.729 110.946 119.52C110.538 119.318 110.099 119.238 109.63 119.28C109.168 119.33 108.709 119.524 108.255 119.86C107.758 120.228 107.469 120.621 107.388 121.039C107.308 121.457 107.38 121.822 107.604 122.134C107.772 122.368 107.998 122.519 108.283 122.586C108.566 122.669 108.944 122.675 109.417 122.603L112.083 122.42C112.674 122.328 113.202 122.395 113.666 122.621C114.122 122.854 114.484 123.211 114.75 123.691C115.005 124.138 115.141 124.582 115.155 125.023C115.161 125.47 115.053 125.895 114.83 126.298C114.608 126.702 114.283 127.062 113.854 127.38ZM111.404 129.015L111.249 128.771L112.625 127.752L112.793 127.986L111.404 129.015Z" fill="white"/>
</g>
<defs>
<filter id="filter0_d_1_2591" x="-11.0682" y="-11.0682" width="195.161" height="195.161" filterUnits="userSpaceOnUse" color-interpolation-filters="sRGB">
<feFlood flood-opacity="0" result="BackgroundImageFix"/>
<feColorMatrix in="SourceAlpha" type="matrix" values="0 0 0 0 0 0 0 0 0 0 0 0 0 0 0 0 0 0 127 0" result="hardAlpha"/>
<feOffset dx="1" dy="1"/>
<feGaussianBlur stdDeviation="13.75"/>
<feComposite in2="hardAlpha" operator="out"/>
<feColorMatrix type="matrix" values="0 0 0 0 0.776997 0 0 0 0 0.761464 0 0 0 0 0.761464 0 0 0 0.25 0"/>
<feBlend mode="normal" in2="BackgroundImageFix" result="effect1_dropShadow_1_2591"/>
<feBlend mode="normal" in="SourceGraphic" in2="effect1_dropShadow_1_2591" result="shape"/>
</filter>
<clipPath id="paint1_diamond_1_2591_clip_path"><rect x="70.5142" y="59.0112" width="30" height="53"/></clipPath><linearGradient id="paint0_linear_1_2591" x1="99.2272" y1="15.4318" x2="99.2272" y2="133.432" gradientUnits="userSpaceOnUse">
<stop stop-color="#141414"/>
<stop offset="1"/>
</linearGradient>
<linearGradient id="paint1_diamond_1_2591" x1="0" y1="0" x2="500" y2="500" gradientUnits="userSpaceOnUse">
<stop stop-color="white"/>
<stop offset="0.329937" stop-color="white" stop-opacity="0.4"/>
<stop offset="0.664969" stop-color="white" stop-opacity="0.1"/>
<stop offset="1" stop-color="white" stop-opacity="0"/>
</linearGradient>
</defs>
</svg>
