<svg width="28" height="28" viewBox="0 0 28 28" fill="none" xmlns="http://www.w3.org/2000/svg">
<path opacity="0.4" d="M14.0002 26.5417C7.07366 26.5417 1.4585 20.9265 1.4585 14C1.4585 7.07354 7.07366 1.45837 14.0002 1.45837C20.9267 1.45837 26.5418 7.07354 26.5418 14C26.5418 20.9265 20.9267 26.5417 14.0002 26.5417Z" fill="#0DC457" fill-opacity="0.31"/>
<path fill-rule="evenodd" clip-rule="evenodd" d="M19.5262 11.2886C19.9613 10.8138 19.9298 10.0753 19.455 9.64011C18.9801 9.20494 18.2416 9.23648 17.8065 9.71131L12.2135 15.813L10.1578 13.7584C9.70282 13.3023 8.96314 13.3023 8.50814 13.7584C8.05197 14.2134 8.05197 14.9532 8.50814 15.4082L11.4248 18.3248C11.65 18.55 11.9568 18.6736 12.2753 18.6666C12.5926 18.6596 12.8948 18.5231 13.1095 18.2886L19.5262 11.2886Z" fill="#0DC457"/>
</svg>
