<svg width="50" height="50" viewBox="0 0 50 50" fill="none" xmlns="http://www.w3.org/2000/svg">
<path d="M25 4.6875C33.2167 4.6875 40.3403 10.1317 41.0811 17.4824C42.184 17.9407 42.9103 18.8334 43.3916 19.4258C43.4343 19.4783 43.4757 19.5289 43.5146 19.5762L43.5527 19.623C44.5027 20.7769 45.2715 21.71 45.8418 22.5195C46.4306 23.3554 46.8765 24.1522 47.123 25.0547C47.4868 26.3864 47.4868 27.7816 47.123 29.1133C46.7833 30.3568 46.0995 31.4271 45.417 32.3203C45.0037 32.8611 44.502 33.4426 44.0605 33.9541C43.8193 34.2337 43.5956 34.4924 43.4141 34.7129C43.395 34.7361 43.3753 34.76 43.3555 34.7842C42.8823 35.3604 42.1885 36.2007 41.1455 36.6562V37.083C41.1455 41.9352 36.3719 45.3125 31.25 45.3125H27.083C26.2202 45.3123 25.5205 44.6128 25.5205 43.75C25.5205 42.8872 26.2202 42.1877 27.083 42.1875H31.25C35.3328 42.1875 38.0205 39.5946 38.0205 37.083V36.6602C37.6947 36.5358 37.3658 36.3874 37.0293 36.2334C36.9714 36.2069 36.9129 36.1809 36.8545 36.1543C36.8091 36.1336 36.764 36.1123 36.7188 36.0918C36.1506 35.8342 35.5933 35.5823 35.1494 35.1963C33.852 34.0679 33.8538 32.5782 33.8545 31.7168V22.4512C33.8538 21.5899 33.8521 20.1002 35.1494 18.9717C35.5933 18.5856 36.1506 18.3328 36.7188 18.0752C36.7639 18.0547 36.8092 18.0343 36.8545 18.0137C36.913 17.987 36.9713 17.9601 37.0293 17.9336C37.3375 17.7925 37.6388 17.6548 37.9375 17.5371C37.225 12.2348 31.9051 7.8125 25 7.8125C18.0949 7.8125 12.7739 12.2347 12.0615 17.5371C12.3605 17.6549 12.6622 17.7924 12.9707 17.9336C13.0287 17.9601 13.087 17.987 13.1455 18.0137C13.1908 18.0343 13.2361 18.0547 13.2813 18.0752C13.8493 18.3327 14.4057 18.5857 14.8496 18.9717C16.1473 20.1002 16.1462 21.5898 16.1455 22.4512V31.7168C16.1462 32.5782 16.1472 34.0678 14.8496 35.1963C14.4058 35.5821 13.8492 35.8343 13.2813 36.0918C13.236 36.1123 13.1909 36.1336 13.1455 36.1543C13.0871 36.1809 13.0286 36.2069 12.9707 36.2334C12.2148 36.5794 11.5029 36.9055 10.7578 36.9658C8.58068 37.1419 7.36102 35.6567 6.64453 34.7842C6.62467 34.76 6.60504 34.7361 6.58594 34.7129C6.40444 34.4924 6.18074 34.2337 5.93945 33.9541C5.49804 33.4426 4.99626 32.8611 4.58301 32.3203C3.90053 31.4271 3.2167 30.3568 2.87695 29.1133C2.51316 27.7816 2.51321 26.3864 2.87695 25.0547C3.12349 24.1522 3.56941 23.3554 4.1582 22.5195C4.72848 21.71 5.49725 20.7769 6.44727 19.623L6.48535 19.5762C6.5243 19.5289 6.56569 19.4783 6.6084 19.4258C7.08956 18.8336 7.81551 17.9408 8.91797 17.4824C9.65866 10.1316 16.7833 4.6875 25 4.6875ZM10.5059 20.3164C10.2477 20.2955 10.0825 20.3541 9.87695 20.5078C9.5986 20.7161 9.33771 21.029 8.89844 21.5625C7.90087 22.7742 7.2075 23.6172 6.71289 24.3193C6.22935 25.0058 6.00461 25.4643 5.8916 25.8779C5.67507 26.6706 5.67507 27.4974 5.8916 28.29C6.07632 28.9658 6.48307 29.6594 7.06641 30.4229C7.44163 30.9139 7.80481 31.333 8.18848 31.7754C8.44562 32.0719 8.7121 32.3793 8.99805 32.7266C9.40426 33.22 9.65758 33.5046 9.90918 33.6836C10.0955 33.8161 10.2533 33.871 10.5059 33.8506C10.63 33.8405 10.8023 33.7866 11.8496 33.3096C12.6488 32.9456 12.7459 32.8848 12.7998 32.8379C12.8929 32.7569 12.9308 32.6894 12.9619 32.5635C13.0078 32.3776 13.0205 32.1308 13.0205 31.6582V22.5098C13.0205 22.0368 13.0078 21.7894 12.9619 21.6035C12.9308 21.4776 12.893 21.4102 12.7998 21.3291C12.7459 21.2822 12.6488 21.2214 11.8496 20.8574C10.8023 20.3804 10.63 20.3265 10.5059 20.3164ZM39.4941 20.3164C39.37 20.3265 39.1977 20.3804 38.1504 20.8574C37.3512 21.2214 37.2541 21.2822 37.2002 21.3291C37.107 21.4102 37.0692 21.4776 37.0381 21.6035C36.9922 21.7894 36.9795 22.0368 36.9795 22.5098V31.6582C36.9795 32.1308 36.9922 32.3776 37.0381 32.5635C37.0692 32.6894 37.1071 32.7569 37.2002 32.8379C37.2541 32.8848 37.3512 32.9456 38.1504 33.3096C39.1977 33.7866 39.37 33.8405 39.4941 33.8506C39.7467 33.871 39.9045 33.8161 40.0908 33.6836C40.3424 33.5046 40.5957 33.22 41.002 32.7266C41.2879 32.3793 41.5544 32.0719 41.8115 31.7754C42.1952 31.333 42.5584 30.9139 42.9336 30.4229C43.5169 29.6594 43.9237 28.9658 44.1084 28.29C44.3249 27.4974 44.3249 26.6706 44.1084 25.8779C43.9954 25.4643 43.7706 25.0058 43.2871 24.3193C42.7925 23.6172 42.0991 22.7742 41.1016 21.5625C40.6623 21.029 40.4014 20.7161 40.123 20.5078C39.9175 20.3541 39.7524 20.2955 39.4941 20.3164Z" fill="white"/>
</svg>
