<svg width="50" height="50" viewBox="0 0 50 50" fill="none" xmlns="http://www.w3.org/2000/svg">
<path d="M37.0646 34.1377C37.7707 33.6419 38.7454 33.8126 39.2413 34.5186C42.0726 38.554 44.1187 41.4709 42.8458 44.2021C42.7354 44.4416 42.5979 44.6894 42.4376 44.9268C40.773 47.3955 37.3935 47.3955 30.6622 47.3955H19.338C12.6068 47.3955 9.22707 47.3954 7.56457 44.9287C7.40425 44.6892 7.26503 44.4413 7.15051 44.1914C5.87974 41.4706 7.92768 38.5539 10.7589 34.5186C11.2548 33.8126 12.2295 33.6419 12.9357 34.1377C13.6417 34.6336 13.8123 35.6083 13.3165 36.3145C11.0689 39.5182 9.51301 41.8661 9.98742 42.8809C10.0374 42.9892 10.0937 43.0876 10.1583 43.1855C10.8896 44.2709 14.2506 44.2705 19.338 44.2705H30.6622C35.7495 44.2705 39.1103 44.2709 39.8439 43.1836C39.9085 43.0878 39.9652 42.9895 40.0089 42.8916C40.4877 41.8665 38.9315 39.5184 36.6837 36.3145C36.1879 35.6083 36.3585 34.6336 37.0646 34.1377ZM25.0001 2.60449C31.4501 2.60449 37.4464 6.59362 39.9152 12.5332C44.2088 22.8558 36.438 30.2267 30.1964 36.1475C29.6902 36.6266 29.1898 37.1025 28.7023 37.5713C27.7023 38.5337 26.3875 39.0625 25.0001 39.0625C23.6127 39.0625 22.2979 38.5336 21.298 37.5732C20.7751 37.067 20.2437 36.5604 19.7062 36.0479C13.5145 30.1541 5.80888 22.8185 10.088 12.5332C12.5568 6.59376 18.5502 2.60451 25.0001 2.60449ZM25.0001 5.72949C19.796 5.72951 14.9623 8.94592 12.9728 13.7334C9.5188 22.0353 15.7939 28.0083 21.8605 33.7832C22.4063 34.302 22.9439 34.8149 23.4689 35.3232C23.8793 35.7169 24.4252 35.9375 25.0001 35.9375C25.5749 35.9375 26.1207 35.719 26.5353 35.3213C27.029 34.8463 27.5356 34.3663 28.046 33.8809C34.1689 28.0747 40.498 22.0708 37.0314 13.7334C35.0397 8.9459 30.2043 5.72949 25.0001 5.72949ZM25.0001 11.9795C28.7335 11.9795 31.7706 15.0167 31.7706 18.75C31.7706 22.4833 28.7335 25.5205 25.0001 25.5205C21.2668 25.5204 18.2296 22.4833 18.2296 18.75C18.2296 15.0167 21.2668 11.9796 25.0001 11.9795ZM25.0001 15.1045C22.9898 15.1046 21.3546 16.7396 21.3546 18.75C21.3546 20.7604 22.9898 22.3954 25.0001 22.3955C27.0105 22.3955 28.6456 20.7604 28.6456 18.75C28.6456 16.7396 27.0105 15.1045 25.0001 15.1045Z" fill="white"/>
</svg>
