<svg width="64" height="64" viewBox="0 0 64 64" fill="none" xmlns="http://www.w3.org/2000/svg">
<rect width="64" height="64" rx="12" fill="url(#paint0_linear_2004_12259)"/>
<path d="M18.9914 25.7532C18.5109 26.3218 17.742 26.7704 16.9732 26.7063C16.8771 25.9375 17.2535 25.1205 17.694 24.616C18.1744 24.0314 19.0154 23.6149 19.6962 23.5829C19.7762 24.3837 19.4639 25.1686 18.9914 25.7532ZM19.6882 26.8585C18.575 26.7944 17.622 27.4911 17.0934 27.4911C16.5569 27.4911 15.7479 26.8905 14.867 26.9065C13.7218 26.9225 12.6566 27.5712 12.0719 28.6043C10.8706 30.6706 11.7596 33.73 12.9208 35.4118C13.4895 36.2447 14.1702 37.1577 15.0672 37.1256C15.9162 37.0936 16.2525 36.5731 17.2777 36.5731C18.3107 36.5731 18.6071 37.1256 19.5041 37.1096C20.4331 37.0936 21.0177 36.2768 21.5863 35.4438C22.235 34.4988 22.4993 33.5778 22.5153 33.5297C22.4993 33.5137 20.7214 32.833 20.7054 30.7827C20.6894 29.0689 22.1069 28.252 22.171 28.204C21.37 27.0186 20.1207 26.8905 19.6882 26.8585ZM26.1193 24.5359V37.0216H28.0574V32.753H30.7403C33.1909 32.753 34.9129 31.0712 34.9129 28.6365C34.9129 26.2018 33.223 24.536 30.8044 24.536L26.1193 24.5359ZM28.0574 26.1697H30.2918C31.9737 26.1697 32.9347 27.0667 32.9347 28.6444C32.9347 30.2221 31.9737 31.1271 30.2838 31.1271H28.0574V26.1697ZM38.4526 37.1176C39.67 37.1176 40.7992 36.501 41.3117 35.5239H41.3518V37.0215H43.1458V30.8067C43.1458 29.0048 41.7042 27.8435 39.4857 27.8435C37.4275 27.8435 35.9058 29.0208 35.8498 30.6386H37.5957C37.7399 29.8697 38.4525 29.3652 39.4297 29.3652C40.615 29.3652 41.2797 29.9178 41.2797 30.9349V31.6236L38.861 31.7678C36.6106 31.9039 35.3933 32.8249 35.3933 34.4267C35.3933 36.0445 36.6506 37.1176 38.4526 37.1176ZM38.9731 35.636C37.9401 35.636 37.2833 35.1395 37.2833 34.3786C37.2833 33.5939 37.916 33.1373 39.1254 33.0653L41.2797 32.9291V33.6338C41.2797 34.8031 40.2867 35.636 38.9732 35.636M45.5404 40.4172C47.4305 40.4172 48.3195 39.6965 49.0963 37.5101L52.4999 27.9636H50.5298L48.2473 35.3396H48.2073L45.9248 27.9636H43.8986L47.1821 37.0535L47.0059 37.6062C46.7096 38.5432 46.2291 38.9036 45.3722 38.9036C45.22 38.9036 44.9237 38.8876 44.8035 38.8716V40.3692C44.9157 40.4012 45.3961 40.4172 45.5403 40.4172" fill="#282A50"/>
<defs>
<linearGradient id="paint0_linear_2004_12259" x1="32" y1="0" x2="32" y2="64" gradientUnits="userSpaceOnUse">
<stop stop-color="#F3F3F3"/>
<stop offset="1" stop-color="#C0C0C0"/>
</linearGradient>
</defs>
</svg>
