<svg width="50" height="50" viewBox="0 0 50 50" fill="none" xmlns="http://www.w3.org/2000/svg">
<path fill-rule="evenodd" clip-rule="evenodd" d="M7.69643 3.59648C8.70473 2.77992 9.88602 2.45307 11.0255 2.66972C12.1692 2.88851 13.1463 3.62781 13.7775 4.75273L15.5988 8.02812C17.1466 10.8029 18.0004 12.3324 17.8087 14.199C17.617 16.0405 16.5005 17.3302 14.4777 19.6717L14.3751 19.7889L9.78823 25.0486C13.4674 31.084 18.9049 36.5217 24.9445 40.2029L30.2111 35.6277C32.5109 33.6112 33.9005 32.3923 35.7921 32.1902C37.6921 31.9944 39.3048 32.899 41.9777 34.4031L45.2335 36.2107C46.3752 36.8524 47.1174 37.8381 47.3341 38.9881C47.5487 40.1256 47.2152 41.3008 46.3986 42.2967C43.7548 45.5446 40.0004 47.3797 36.215 47.3797L36.2111 47.3777C35.4445 47.3777 34.6756 47.3024 33.9132 47.1482C30.5695 46.4878 27.6151 45.3548 24.338 43.4715C17.134 39.3424 10.6378 32.847 6.51284 25.6492C4.6462 22.4013 3.51037 19.449 2.8312 16.074C1.92078 11.5636 3.78393 6.7819 7.69643 3.59648ZM36.1193 35.2967C35.2505 35.3883 34.3108 36.1865 32.2628 37.9803L27.8527 41.8113H27.8546C30.0755 42.9071 32.1983 43.6263 34.5275 44.0867C37.9087 44.7721 41.5278 43.3274 43.9757 40.3191C44.1361 40.1233 44.311 39.84 44.2589 39.5652C44.2172 39.3424 44.0146 39.1132 43.7042 38.9383L40.4484 37.1297C38.1339 35.8256 36.9859 35.203 36.1193 35.2967ZM20.3048 7.24199C26.4923 1.05866 36.5587 1.05866 42.7462 7.24199C45.7421 10.2378 47.3947 14.2231 47.3947 18.4627C47.3947 22.7022 45.7484 26.677 42.7589 29.6707C42.5173 29.9207 42.2795 30.1378 42.0753 30.3211C41.7775 30.5897 41.4023 30.7234 41.0294 30.7234V30.7185C40.6025 30.7185 40.1756 30.5435 39.8673 30.2019C39.2905 29.5603 39.3421 28.5729 39.9835 27.9959C40.1959 27.8043 40.3586 27.6544 40.5148 27.492L40.5382 27.4685C42.9443 25.0644 44.2697 21.8647 44.2697 18.4607C44.2697 15.0566 42.9445 11.8562 40.5382 9.45C35.5736 4.48756 27.4963 4.48608 22.5255 9.44023C22.3506 9.62349 22.1792 9.80854 22.0001 10.0105C21.4251 10.6541 20.4378 10.7123 19.7941 10.1394C19.1506 9.5665 19.0923 8.57914 19.6652 7.93339C19.8756 7.69802 20.0752 7.47899 20.2814 7.26445L20.3048 7.24199ZM26.7814 13.0213C27.8353 13.0213 28.6685 13.0211 29.383 13.7019C30.1287 14.4185 30.1291 15.2957 30.1291 16.3143C30.1291 18.1851 30.129 19.421 29.1457 20.4002C29.1353 20.4106 29.1248 20.4212 29.1144 20.4295C28.3812 21.1208 27.442 21.2897 26.5568 21.3377V23.4373H28.5646C29.427 23.4373 30.1269 24.1374 30.1271 24.9998C30.1271 25.8623 29.4271 26.5623 28.5646 26.5623H26.7814C25.7251 26.5623 24.8894 26.5622 24.1769 25.8768C23.4336 25.1685 23.4337 24.2898 23.4337 23.2713V20.8338C23.4337 20.1921 23.4336 19.467 24.0294 18.867C24.6357 18.2337 25.3854 18.2293 26.0499 18.2293C26.5729 18.2189 26.8193 18.1813 26.9318 18.1521C27.0047 17.8416 27.0041 17.033 27.0041 16.3123V16.1463H24.9962C24.1339 16.1463 23.4339 15.4461 23.4337 14.5838C23.4337 13.7213 24.1337 13.0213 24.9962 13.0213H26.7814ZM37.4962 13.0213C38.3586 13.0215 39.0587 13.7214 39.0587 14.5838V24.9998C39.0587 25.8622 38.3586 26.5621 37.4962 26.5623C36.6337 26.5623 35.9337 25.8623 35.9337 24.9998V21.3543H34.4601C33.6082 21.3543 32.8023 21.3538 32.1378 20.6873C31.4692 20.027 31.4689 19.2336 31.4689 18.3963V14.5838C31.4689 13.7213 32.1689 13.0213 33.0314 13.0213C33.8938 13.0213 34.5939 13.7213 34.5939 14.5838V18.2293H35.9337V14.5838C35.9337 13.7213 36.6337 13.0213 37.4962 13.0213ZM10.3341 5.72636C10.0697 5.72636 9.80897 5.90266 9.66518 6.01933C6.65897 8.46722 5.21251 12.0841 5.8937 15.4549C6.36662 17.8007 7.09038 19.9282 8.17788 22.1365L12.1105 17.6258C13.8875 15.5696 14.6108 14.703 14.6984 13.8738C14.7859 13.0259 14.234 11.9966 12.8673 9.54667L11.046 6.27421C10.8773 5.97213 10.6586 5.77988 10.4357 5.73613C10.4025 5.72992 10.3673 5.72833 10.3341 5.72832V5.72636Z" fill="white"/>
</svg>
